name C:\Users\u0101727\Documents\MyRepositories\upper-imu-dc\Results\main_tracking\Case_53\kinematics_filtered.mot
datacolumns 10
datarows 33
range 2.04000000 2.36000000
endheader 
time	clav_prot	clav_elev	scapula_abduction	scapula_elevation	scapula_upward_rot	scapula_winging	plane_elv	shoulder_elv	axial_rot	
          2.04000000	        -23.14784491	         12.91317038	        -10.74463774	          5.29339693	         27.37827350	         -0.56156343	        -11.20078607	          2.49106458	         41.81522878	
          2.05000000	        -23.19753638	         12.81728299	        -10.79110406	          5.22232124	         27.36439756	         -0.57171969	        -11.28562376	          2.51888242	         41.99760387	
          2.06000000	        -23.25215465	         12.70970550	        -10.84396426	          5.14341599	         27.34554542	         -0.58156952	        -11.36050753	          2.55600154	         42.18151832	
          2.07000000	        -23.31031426	         12.58876474	        -10.90158950	          5.05605351	         27.31945112	         -0.59031165	        -11.42613969	          2.60436801	         42.36516601	
          2.08000000	        -23.37025820	         12.45261098	        -10.96188060	          4.95958177	         27.28349202	         -0.59698349	        -11.48343448	          2.66609076	         42.54646113	
          2.09000000	        -23.42985450	         12.29925400	        -11.02227241	          4.85334767	         27.23470621	         -0.60046057	        -11.53362059	          2.74340882	         42.72316597	
          2.10000000	        -23.48661150	         12.12662235	        -11.07976799	          4.73673222	         27.16982893	         -0.59946418	        -11.57833384	          2.83864839	         42.89302760	
          2.11000000	        -23.53771569	         11.93264667	        -11.13100862	          4.60919751	         27.08534930	         -0.59257846	        -11.61968668	          2.95417067	         43.05390667	
          2.12000000	        -23.58009714	         11.71536558	        -11.17238571	          4.47034408	         26.97758796	         -0.57827831	        -11.66030361	          3.09231176	         43.20388395	
          2.13000000	        -23.61052715	         11.47304943	        -11.20020059	          4.31997508	         26.84279503	         -0.55496871	        -11.70331595	          3.25531614	         43.34133436	
          2.14000000	        -23.62575376	         11.20433438	        -11.21087820	          4.15816126	         26.67726733	         -0.52103520	        -11.75231432	          3.44526547	         43.46496343	
          2.15000000	        -23.62268051	         10.90835527	        -11.20124050	          3.98529878	         26.47748255	         -0.47490475	        -11.81126155	          3.66400464	         43.57380689	
          2.16000000	        -23.59859313	         10.58486321	        -11.16884325	          3.80214914	         26.24024787	         -0.41511469	        -11.88437302	          3.91306729	         43.66719897	
          2.17000000	        -23.55143659	         10.23431103	        -11.11237666	          3.60984954	         25.96285975	         -0.34038650	        -11.97597447	          4.19360307	         43.74471892	
          2.18000000	        -23.48014054	          9.85788878	        -11.03212266	          3.40988100	         25.64327089	         -0.24970016	        -12.09034862	          4.50630981	         43.80612776	
          2.19000000	        -23.38498270	          9.45749203	        -10.93044943	          3.20398295	         25.28025968	         -0.14236345	        -12.23158250	          4.85137376	         43.85130749	
          2.20000000	        -23.26796753	          9.03560939	        -10.81230457	          2.99400657	         24.87359553	         -0.01807026	        -12.40342587	          5.22842208	         43.88021327	
          2.21000000	        -23.13317928	          8.59512247	        -10.68564156	          2.78170622	         24.42419159	          0.12305886	        -12.60916856	          5.63649215	         43.89284589	
          2.22000000	        -22.98704480	          8.13902412	        -10.56167950	          2.56847937	         23.93423217	          0.28045975	        -12.85154115	          6.07402278	         43.88924643	
          2.23000000	        -22.83841384	          7.67007866	        -10.45485724	          2.35508256	         23.40725719	          0.45313668	        -13.13263975	          6.53887190	         43.86951052	
          2.24000000	        -22.69833784	          7.19047401	        -10.38231044	          2.14137364	         22.84817815	          0.63970628	        -13.45387242	          7.02836360	         43.83381513	
          2.25000000	        -22.57853226	          6.70147959	        -10.36107986	          1.92616003	         22.26318982	          0.83847368	        -13.81592247	          7.53936157	         43.78244848	
          2.26000000	        -22.48725010	          6.20313330	        -10.40080239	          1.70725750	         21.65953518	          1.04753676	        -14.21871919	          8.06835346	         43.71583283	
          2.27000000	        -22.42514769	          5.69426163	        -10.49665373	          1.48184041	         21.04509992	          1.26490610	        -14.66139800	          8.61152336	         43.63452825	
          2.28000000	        -22.38555527	          5.17314960	        -10.63054441	          1.24705025	         20.42787735	          1.48861821	        -15.14223432	          9.16480365	         43.53920901	
          2.29000000	        -22.35827424	          4.63857471	        -10.77876118	          1.00067621	         19.81541703	          1.71681790	        -15.65856683	          9.72392426	         43.43062081	
          2.30000000	        -22.33306441	          4.09062811	        -10.91882721	          0.74167525	         19.21438364	          1.94779708	        -16.20675445	         10.28448148	         43.30954549	
          2.31000000	        -22.30161746	          3.53107951	        -11.03328709	          0.47040122	         18.63030039	          2.17999255	        -16.78220095	         10.84202816	         43.17679733	
          2.32000000	        -22.25842383	          2.96333047	        -11.11119163	          0.18854735	         18.06748487	          2.41195576	        -17.37945233	         11.39217273	         43.03325964	
          2.33000000	        -22.20084780	          2.39207999	        -11.14795172	         -0.10111689	         17.52913566	          2.64231148	        -17.99235644	         11.93067626	         42.87995875	
          2.34000000	        -22.12871200	          1.82284631	        -11.14422115	         -0.39511047	         17.01750342	          2.86972148	        -18.61426774	         12.45354180	         42.71816467	
          2.35000000	        -22.04363679	          1.26146609	        -11.10434738	         -0.68961587	         16.53408164	          3.09286414	        -19.23827940	         12.95709271	         42.54950213	
          2.36000000	        -21.94831841	          0.71364886	        -11.03477958	         -0.98080651	         16.07977361	          3.31043438	        -19.85746811	         13.43803766	         42.37605309	
